# xmcd CD database file
#
# Track frame offsets:
#	150
#	18564
#	50363
#	77701
#	95251
#	119926
#	158326
#	173850
#	195075
#	212700
#	230475
#	257549
#
# Disc length: 3791 seconds
#
# Revision: 0
# Processed by: cddbd v1.5.1PL0 Copyright (c) Steve Scherf et al.
# Submitted via: CDex 1.51
#
DISCID=920ecd0c
DTITLE=Big Max - Why get up ?
DYEAR=2004
DGENRE=Blues
TTITLE0=Talk to me baby
TTITLE1=Dangerous mood
TTITLE2=Hoochie coochie man
TTITLE3=Sik and tired
TTITLE4=Jelly jelly
TTITLE5=St James infirmary
TTITLE6=Sugar pie, honey bun
TTITLE7=The bouncer
TTITLE8=There's got to be a change
TTITLE9=Tore down
TTITLE10=Turn on your lovelight
TTITLE11=Why get up
EXTD=YEAR: 2004
EXTT0=
EXTT1=
EXTT2=
EXTT3=
EXTT4=
EXTT5=
EXTT6=
EXTT7=
EXTT8=
EXTT9=
EXTT10=
EXTT11=
PLAYORDER=
